# xmcd CD database file generated by Grip 3.0.7
# 
# Track frame offsets:
#       150
#       12456
#       26004
#       40228
#       52708
#       66259
#       79396
#       94910
#       109845
#       124245
#       140724
#       153958
#       167875
#       182393
#       196387
#       210119
#       224835
#       238482
#       252532
#       266115
#       279593
#       293370
#       309160
#       322864
# 
# Disc length: 4480 seconds
# 
# Revision: 1
# Processed by: cddbd v1.5.2PL0 Copyright (c) Steve Scherf et al.
# Submitted via: Grip 3.0.7
# 
DISCID=63117e18
DTITLE=Lonnie Johnson - The Original Guitar Wizard: Mr. Johnson's Blues  (Dis
DTITLE=c 1)
DYEAR=2004
DGENRE=Blues
TTITLE0=Mr. Johnson's Blues
TTITLE1=Johnson's Trio Stomp
TTITLE2=To Do This You Got To Know How
TTITLE3=South Bound Water
TTITLE4=I Done Told You
TTITLE5=Steppin' On The Blues
TTITLE6=Steady Grind
TTITLE7=Four Hands Are Better Than Two
TTITLE8=Woke Up With The Blues In My Fingers
TTITLE9=Backwater Blues
TTITLE10=Mean Old Bedbug Blues
TTITLE11=Roaming Rambler Blues
TTITLE12=Stay Out Of Walnut Street Alley
TTITLE13=St. Louis Cyclone Blues
TTITLE14=Bedbug Blues, Pt. 2
TTITLE15=Garter Snake Blues
TTITLE16=6/88 Glide
TTITLE17=Life Saver Blues
TTITLE18=I'm Not Rough
TTITLE19=Sweet Potato Blues
TTITLE20=Hotter Than That
TTITLE21=Savoy Blues
TTITLE22=Playing With The Strings
TTITLE23=Stompin' Em Along Now
EXTD=YEAR: 2004 ID3G: 0
EXTT0=
EXTT1=
EXTT2=
EXTT3=
EXTT4=
EXTT5=
EXTT6=
EXTT7=
EXTT8=
EXTT9=
EXTT10=
EXTT11=
EXTT12=
EXTT13=
EXTT14=
EXTT15=
EXTT16=
EXTT17=
EXTT18=
EXTT19=
EXTT20=
EXTT21=
EXTT22=
EXTT23=
PLAYORDER=
